<?xml version="1.0" encoding="UTF-8" standalone="no"?>
<!-- Created with Inkscape (http://www.inkscape.org/) -->
<svg
   xmlns:dc="http://purl.org/dc/elements/1.1/"
   xmlns:cc="http://web.resource.org/cc/"
   xmlns:rdf="http://www.w3.org/1999/02/22-rdf-syntax-ns#"
   xmlns:svg="http://www.w3.org/2000/svg"
   xmlns="http://www.w3.org/2000/svg"
   xmlns:sodipodi="http://sodipodi.sourceforge.net/DTD/sodipodi-0.dtd"
   xmlns:inkscape="http://www.inkscape.org/namespaces/inkscape"
   width="950"
   height="515"
   id="svg2"
   sodipodi:version="0.32"
   inkscape:version="0.45"
   version="1.0"
   sodipodi:docbase="/home/auxesis/Desktop/epilog/public/images"
   sodipodi:docname="epilog-logo.svg"
   inkscape:output_extension="org.inkscape.output.svg.inkscape"
   sodipodi:modified="true">
  <defs
     id="defs4" />
  <sodipodi:namedview
     id="base"
     pagecolor="#ffffff"
     bordercolor="#666666"
     borderopacity="1.0"
     gridtolerance="10000"
     guidetolerance="10"
     objecttolerance="10"
     inkscape:pageopacity="0.0"
     inkscape:pageshadow="2"
     inkscape:zoom="0.32310327"
     inkscape:cx="527.12622"
     inkscape:cy="337.05519"
     inkscape:document-units="px"
     inkscape:current-layer="layer1"
     width="950px"
     height="515px"
     inkscape:window-width="1024"
     inkscape:window-height="693"
     inkscape:window-x="0"
     inkscape:window-y="25" />
  <metadata
     id="metadata7">
    <rdf:RDF>
      <cc:Work
         rdf:about="">
        <dc:format>image/svg+xml</dc:format>
        <dc:type
           rdf:resource="http://purl.org/dc/dcmitype/StillImage" />
      </cc:Work>
    </rdf:RDF>
  </metadata>
  <g
     inkscape:label="Layer 1"
     inkscape:groupmode="layer"
     id="layer1"
     transform="translate(-76.349342,-126.73691)">
    <rect
       style="opacity:1;fill:#eeeeee;fill-opacity:1;stroke:#000000;stroke-width:9.85801029;stroke-linecap:round;stroke-linejoin:miter;stroke-miterlimit:4;stroke-dasharray:none;stroke-dashoffset:0;stroke-opacity:1"
       id="rect2160"
       width="912.0921"
       height="200.14198"
       x="73.991966"
       y="-291.45636" />
    <rect
       style="opacity:1;fill:#ffff7a;fill-opacity:1;stroke:#000000;stroke-width:9.79492569;stroke-linecap:round;stroke-linejoin:miter;stroke-miterlimit:4;stroke-dasharray:none;stroke-dashoffset:0;stroke-opacity:1"
       id="rect2162"
       width="259.81497"
       height="198.44455"
       x="995.19409"
       y="-289.23764" />
    <g
       id="g6050"
       transform="matrix(1.2529221,0,0,1.2529221,-140.27379,-97.568796)">
      <path
         style="font-size:407.94406128px;font-style:normal;font-weight:normal;fill:#980101;fill-opacity:1;stroke:none;stroke-width:1px;stroke-linecap:butt;stroke-linejoin:miter;stroke-opacity:1;font-family:cmr10"
         d="M 326.37968,361.67817 C 323.93186,368.74929 320.39635,379.21985 315.77313,393.08986 C 314.9571,394.17778 313.73327,395.80956 312.10164,397.98519 L 304.75864,409.40763 C 282.45759,443.40298 258.38891,460.40063 232.55255,460.40063 C 221.94594,460.40063 213.10717,457.81699 206.03618,452.6497 C 197.33334,446.39457 192.98195,437.14785 192.98197,424.9095 C 192.98195,418.92636 194.0698,412.67123 196.24552,406.14407 L 211.33945,361.67817 C 217.05062,345.08856 227.11323,331.7624 241.52731,321.69965 C 255.12536,312.18111 269.53937,307.42176 284.76938,307.42161 C 307.07019,307.42176 318.22065,314.35681 318.2208,328.22676 C 318.22065,345.36052 307.88607,360.0465 287.21705,372.28472 C 279.87394,376.6362 263.5562,383.57125 238.26376,393.08986 C 234.45622,403.69647 232.55248,410.22357 232.55255,412.67118 C 232.55248,416.4787 233.50435,420.15019 235.40815,423.68567 C 237.58378,427.22122 240.16743,428.98897 243.15909,428.98894 C 255.94125,428.98897 270.89918,420.69412 288.03294,404.10435 C 289.93655,402.47264 302.71879,388.33059 326.37968,361.67817 M 288.84883,342.09686 C 288.8487,339.64931 286.40104,338.42548 281.50583,338.42536 C 280.68983,338.42548 279.466,338.42548 277.83434,338.42536 C 276.20245,338.69744 274.84264,338.83343 273.7549,338.8333 C 269.94731,338.83343 265.18797,341.55305 259.47685,346.99219 C 254.03751,352.15959 250.502,357.05491 248.87031,361.67817 L 243.56703,376.7721 C 250.90994,373.7806 258.11695,370.51705 265.18807,366.98144 C 272.259,363.44603 278.78609,358.00678 284.76938,350.66368 C 287.48889,346.85632 288.8487,344.00071 288.84883,342.09686 M 459.25471,361.67817 L 448.64816,393.08986 C 427.97884,393.08993 416.0125,397.44133 412.74909,406.14407 C 405.67792,423.27776 395.61531,436.60392 382.56122,446.12259 C 369.50692,455.64129 355.09291,460.40063 339.31915,460.40063 C 333.33592,460.40063 327.76069,459.58475 322.59345,457.95297 L 299.74858,525.67168 L 262.21773,525.67168 L 336.46355,307.42161 L 373.9944,307.42161 L 370.73085,316.39638 C 377.80177,310.41335 384.73682,307.42176 391.53599,307.42161 C 401.87045,307.42176 410.70923,310.00541 418.05236,315.17255 C 426.75501,321.42783 431.10641,330.67455 431.10657,342.91275 C 431.10641,348.89604 428.79473,358.5507 424.17152,371.87677 C 432.6022,365.0778 444.29659,361.67827 459.25471,361.67817 M 391.12805,355.15107 C 391.12793,351.07174 390.17606,347.40024 388.27244,344.13658 C 386.36859,340.60118 383.78495,338.83343 380.5215,338.8333 C 376.71392,338.83343 371.95458,341.55305 366.24346,346.99219 C 360.80412,352.15959 357.26861,357.05491 355.63692,361.67817 L 340.54299,406.14407 C 339.72703,408.04787 339.31909,410.22357 339.31915,412.67118 C 339.31909,416.4787 340.27096,420.15019 342.17476,423.68567 C 344.35039,427.22122 346.93404,428.98897 349.9257,428.98894 C 354.00506,428.98897 358.7644,426.40533 364.20374,421.238 C 369.91486,415.7988 373.58636,410.76749 375.21823,406.14407 L 390.31216,361.67817 C 390.85597,359.50257 391.12793,357.32687 391.12805,355.15107 M 504.89983,284.1688 C 496.4689,284.16898 492.25348,279.54562 492.25356,270.2987 C 492.25348,262.68394 495.24507,255.7489 501.22833,249.49356 C 507.48338,243.23863 513.73851,240.11106 519.99376,240.11084 C 528.42449,240.11106 532.6399,244.73442 532.64002,253.98094 C 532.6399,261.59609 529.51233,268.53114 523.25731,274.78609 C 517.27403,281.04141 511.15487,284.16898 504.89983,284.1688 M 514.28254,307.82956 L 462.0657,460.80858 L 424.53485,460.80858 L 476.34374,307.82956 M 543.73158,406.14407 C 542.91562,408.31983 542.50768,410.49553 542.50774,412.67118 C 542.50768,416.4787 543.45955,420.15019 545.36335,423.68567 C 547.53898,427.22122 550.12263,428.98897 553.11429,428.98894 C 568.88804,428.98897 584.25391,421.78197 599.21197,407.36791 C 609.00249,397.84927 620.42492,382.61938 633.47927,361.67817 L 622.87272,393.08986 C 616.61744,411.58338 605.60296,427.49318 589.82926,440.81932 C 574.32728,453.87354 558.55346,460.40063 542.50774,460.40063 C 531.90114,460.40063 523.06236,457.81699 515.99138,452.6497 C 507.28854,446.39457 502.93714,437.14785 502.93717,424.9095 C 502.93714,418.11048 505.24883,407.50394 509.87222,393.08986 C 513.67966,382.4834 517.48713,372.01284 521.29465,361.67817 L 557.60167,255.20477 C 569.8399,218.76201 594.18054,200.54053 630.62366,200.54027 C 641.23004,200.54053 650.2048,203.12417 657.54797,208.2912 C 666.25059,214.54659 670.60199,223.79332 670.60218,236.0314 C 670.60199,241.47087 669.51414,247.86199 667.33863,255.20477 C 658.63564,282.40122 641.50201,313.13298 615.93768,347.40013 C 586.83756,386.56283 562.76888,406.14413 543.73158,406.14407 M 630.62366,248.26972 C 630.62351,244.46246 629.67164,240.79097 627.76805,237.25523 C 625.86417,233.71994 623.28052,231.95219 620.01712,231.95196 C 616.2095,231.95219 611.45016,234.67181 605.73907,240.11084 C 600.2997,245.27835 596.76418,250.30965 595.13253,255.20477 L 555.15401,371.87677 C 564.12869,371.6049 578.13476,355.01519 597.17225,322.1076 C 614.30576,293.00776 625.18426,270.70684 629.80777,255.20477 C 630.35155,252.75732 630.62351,250.44563 630.62366,248.26972 M 773.19373,361.67817 L 762.58718,393.08986 C 742.18982,393.08993 730.22348,397.44133 726.6881,406.14407 C 725.05619,409.67964 722.60853,414.84693 719.34511,421.64595 C 711.73003,433.8843 701.93938,443.40298 689.97314,450.20203 C 678.00669,457.0011 665.76838,460.40063 653.25817,460.40063 C 642.65157,460.40063 633.81279,457.81699 626.74181,452.6497 C 618.03897,446.39457 613.68757,437.14785 613.6876,424.9095 C 613.68757,418.92636 614.77542,412.67123 616.95115,406.14407 L 632.04508,361.67817 C 637.75625,345.08856 647.81886,331.7624 662.23294,321.69965 C 675.83099,312.18111 690.245,307.42176 705.47501,307.42161 C 715.80947,307.42176 724.64825,310.00541 731.99138,315.17255 C 740.69403,321.42783 745.04543,330.67455 745.04559,342.91275 C 745.04543,349.168 742.73375,358.82267 738.11054,371.87677 C 745.18141,365.0778 756.87579,361.67827 773.19373,361.67817 M 705.06707,355.15107 C 705.06695,351.07174 704.11508,347.40024 702.21146,344.13658 C 700.30761,340.60118 697.72396,338.83343 694.46052,338.8333 C 690.65294,338.83343 685.8936,341.55305 680.18248,346.99219 C 674.74314,352.15959 671.20763,357.05491 669.57593,361.67817 L 654.482,406.14407 C 653.66605,408.04787 653.25811,410.22357 653.25817,412.67118 C 653.25811,416.4787 654.20997,420.15019 656.11378,423.68567 C 658.28941,427.22122 660.87305,428.98897 663.86472,428.98894 C 667.94408,428.98897 672.70342,426.40533 678.14276,421.238 C 683.85388,415.7988 687.52537,410.76749 689.15725,406.14407 L 704.25118,361.67817 C 704.79499,359.50257 705.06695,357.32687 705.06707,355.15107 M 911.03418,361.67817 L 900.42763,393.08986 C 879.21439,393.08993 867.24804,397.44133 864.52856,406.14407 L 823.73415,526.07963 L 823.32621,526.07963 C 819.7906,535.59825 807.55229,544.57301 786.61124,553.00394 C 765.67007,561.70664 753.56774,570.81738 750.30422,580.33619 C 739.69766,580.33607 730.85888,577.88841 723.78786,572.9932 C 714.8131,566.73795 710.32572,557.49122 710.3257,545.253 C 710.32572,539.26974 711.54955,532.87862 713.9972,526.07963 C 719.43646,509.76182 729.49907,496.43566 744.18506,486.10111 C 757.78316,476.5824 772.19717,471.82306 787.42713,471.82307 C 792.86632,471.82306 799.25743,467.47166 806.6005,458.76886 C 801.43313,459.85671 796.26585,460.40063 791.09863,460.40063 C 780.49203,460.40063 771.65325,457.81699 764.58226,452.6497 C 755.87942,446.39457 751.52803,437.14785 751.52805,424.9095 C 751.52803,418.92636 752.61588,412.67123 754.7916,406.14407 L 769.88553,361.67817 C 775.5967,345.08856 785.65931,331.7624 800.07339,321.69965 C 813.67144,312.18111 828.08545,307.42176 843.31547,307.42161 C 853.64992,307.42176 862.4887,310.00541 869.83183,315.17255 C 878.53448,321.42783 882.88588,330.67455 882.88604,342.91275 C 882.88588,349.168 881.39009,356.64697 878.39865,365.34967 C 888.18915,362.9021 899.06765,361.67827 911.03418,361.67817 M 842.90752,355.15107 C 842.9074,351.07174 841.95554,347.40024 840.05191,344.13658 C 838.14806,340.60118 835.56442,338.83343 832.30098,338.8333 C 828.4934,338.83343 823.73405,341.55305 818.02293,346.99219 C 812.58359,352.15959 809.04808,357.05491 807.41639,361.67817 L 792.32246,406.14407 C 791.5065,408.04787 791.09856,410.22357 791.09863,412.67118 C 791.09856,416.4787 792.05043,420.15019 793.95423,423.68567 C 796.12987,427.22122 798.71351,428.98897 801.70517,428.98894 C 805.78453,428.98897 810.54387,426.40533 815.98321,421.238 C 821.69433,415.7988 825.36583,410.76749 826.9977,406.14407 L 842.09163,361.67817 C 842.63544,359.50257 842.9074,357.32687 842.90752,355.15107 M 794.77012,500.7871 C 788.78688,502.41883 782.66772,503.23472 776.41264,503.23476 C 771.51726,503.23472 765.94203,506.63425 759.68693,513.43336 C 753.43176,520.23237 750.30419,526.75947 750.30422,533.01468 C 750.30419,543.34918 753.70373,548.65245 760.50282,548.9245 L 760.50282,548.9245 C 764.58222,548.92441 769.34157,546.20478 774.78086,540.76561 C 780.49203,535.59825 784.16352,530.70292 785.79535,526.07963 L 786.2033,526.07963 L 794.77012,500.7871"
         id="text4103"
         sodipodi:nodetypes="ccccscscccssccscscccscscccscccccssccccccscsccccscccscscccccscsscccccccscsccccscscccccsccccssccccccccccsscscccscsccccscccscsccccccccccccsccscscscccscsccccscccscscccccssscccccc" />
      <path
         sodipodi:nodetypes="cscsccccscscccccsccccssccccccccccsscscccscsccccscccscsccccccccccccsccscscscccscsccccscccscscccccssscccccc"
         id="text6045"
         d="M 534.94099,398.35886 C 534.12503,400.53461 533.71709,402.71031 533.71716,404.88596 C 533.71709,408.69348 534.66896,412.36498 536.57276,415.90045 C 538.7484,419.436 541.33204,421.20376 544.3237,421.20372 C 560.09745,421.20376 575.46332,413.99675 590.42138,399.58269 C 600.21191,390.06406 609.71941,375.2445 622.77376,354.30329 L 612.53465,385.69152 C 606.27936,404.18503 596.81238,419.70796 581.03867,433.0341 C 565.5367,446.08832 549.76287,452.61542 533.71716,452.61542 C 523.11056,452.61542 514.27178,450.03177 507.20079,444.86448 C 498.49796,438.60935 494.14656,429.36263 494.14658,417.12428 C 494.14656,410.32526 496.45824,399.71872 501.08163,385.30465 C 504.88907,374.69818 508.69655,364.22763 512.50406,353.89295 L 548.81109,247.41955 C 561.04932,210.97679 585.38995,192.75531 621.83307,192.75505 C 632.43945,192.75531 641.41421,195.33895 648.75738,200.50599 C 657.46,206.76138 661.8114,216.0081 661.81159,228.24618 C 661.8114,233.68566 660.72355,240.07677 658.54804,247.41955 C 649.84505,274.616 632.71142,305.34776 607.14709,339.61491 C 578.04697,378.77762 553.97829,398.35891 534.94099,398.35886 M 621.83307,240.48451 C 621.83292,236.67724 620.88105,233.00575 618.97746,229.47002 C 617.07358,225.93473 614.48993,224.16697 611.22653,224.16674 C 607.41891,224.16697 602.65957,226.8866 596.94849,232.32562 C 591.50911,237.49313 587.9736,242.52444 586.34194,247.41955 L 546.36342,364.09156 C 555.3381,363.81968 569.34417,347.22997 588.38166,314.32238 C 605.51517,285.22254 616.39367,262.92162 621.01718,247.41955 C 621.56096,244.9721 621.83292,242.66042 621.83307,240.48451 M 760.33479,355.04043 L 749.83257,386.13918 C 729.43521,386.13924 721.43289,389.65611 717.89752,398.35886 C 716.26561,401.89442 713.81795,407.06171 710.55453,413.86073 C 702.93945,426.09908 693.1488,435.61777 681.18256,442.41682 C 669.21611,449.21589 656.9778,452.61542 644.46759,452.61542 C 633.86099,452.61542 625.02221,450.03177 617.95123,444.86448 C 609.24839,438.60935 604.89699,429.36263 604.89702,417.12428 C 604.89699,411.14115 605.98484,404.88601 608.16057,398.35886 L 623.2545,353.89295 C 628.96567,337.30334 639.02828,323.97719 653.44236,313.91444 C 667.04041,304.39589 681.45442,299.63655 696.68443,299.63639 C 707.01889,299.63655 715.85766,302.22019 723.20079,307.38733 C 731.90345,313.64261 736.25485,322.88934 736.255,335.12753 C 736.25485,341.38278 733.94317,351.03745 729.31996,364.09156 C 736.39083,357.29258 747.35499,353.89305 763.67292,353.89295 M 696.27649,347.36585 C 696.27637,343.28652 695.3245,339.61503 693.42088,336.35136 C 691.51703,332.81596 688.93338,331.04821 685.66994,331.04809 C 681.86236,331.04821 677.10302,333.76783 671.3919,339.20697 C 665.95256,344.37437 662.41705,349.26969 660.78535,353.89295 L 645.69142,398.35886 C 644.87547,400.26265 644.46753,402.43835 644.46759,404.88596 C 644.46753,408.69348 645.41939,412.36498 647.3232,415.90045 C 649.49883,419.436 652.08247,421.20376 655.07414,421.20372 C 659.1535,421.20376 663.91284,418.62011 669.35218,413.45279 C 675.0633,408.01358 678.73479,402.98227 680.36667,398.35886 L 695.4606,353.89295 C 696.00441,351.71735 696.27637,349.54165 696.27649,347.36585 M 902.24362,353.89295 L 891.63708,385.30465 C 870.42383,385.30471 858.45748,389.65611 855.738,398.35886 L 814.94359,518.29441 L 814.53565,518.29441 C 811.00004,527.81303 798.76173,536.78779 777.82068,545.21872 C 756.87951,553.92142 744.77719,563.03217 741.51366,572.55097 C 730.9071,572.55085 722.06832,570.10319 714.9973,565.20798 C 706.02254,558.95273 701.53516,549.70601 701.53514,537.46778 C 701.53516,531.48452 702.75899,525.09341 705.20664,518.29441 C 710.6459,501.9766 720.70851,488.65044 735.3945,478.31589 C 748.9926,468.79718 763.40661,464.03784 778.63657,464.03785 C 784.07576,464.03784 790.46688,459.68644 797.80994,450.98364 C 792.64257,452.07149 787.47529,452.61542 782.30807,452.61542 C 771.70147,452.61542 762.86269,450.03177 755.7917,444.86448 C 747.08887,438.60935 742.73747,429.36263 742.73749,417.12428 C 742.73747,411.14115 743.82532,404.88601 746.00105,398.35886 L 761.09498,353.89295 C 766.80614,337.30334 776.86875,323.97719 791.28284,313.91444 C 804.88088,304.39589 819.29489,299.63655 834.52491,299.63639 C 844.85936,299.63655 853.69814,302.22019 861.04127,307.38733 C 869.74393,313.64261 874.09532,322.88934 874.09548,335.12753 C 874.09532,341.38278 872.59953,348.86175 869.6081,357.56445 C 879.39859,355.11688 890.27709,353.89305 902.24362,353.89295 M 834.11696,347.36585 C 834.11685,343.28652 833.16498,339.61503 831.26135,336.35136 C 829.3575,332.81596 826.77386,331.04821 823.51042,331.04809 C 819.70284,331.04821 814.94349,333.76783 809.23238,339.20697 C 803.79303,344.37437 800.25752,349.26969 798.62583,353.89295 L 783.5319,398.35886 C 782.71595,400.26265 782.308,402.43835 782.30807,404.88596 C 782.308,408.69348 783.25987,412.36498 785.16368,415.90045 C 787.33931,419.436 789.92295,421.20376 792.91461,421.20372 C 796.99397,421.20376 801.75332,418.62011 807.19266,413.45279 C 812.90378,408.01358 816.57527,402.98227 818.20715,398.35886 L 833.30108,353.89295 C 833.84488,351.71735 834.11685,349.54165 834.11696,347.36585 M 785.97956,493.00188 C 779.99632,494.63361 773.87717,495.4495 767.62208,495.44954 C 762.72671,495.4495 757.15148,498.84903 750.89637,505.64815 C 744.64121,512.44715 741.51364,518.97425 741.51366,525.22946 C 741.51364,535.56396 744.91317,540.86723 751.71226,541.13928 L 751.71226,541.13928 C 755.79166,541.13919 760.55101,538.41957 765.99031,532.9804 C 771.70147,527.81303 775.37296,522.91771 777.00479,518.29441 L 777.41274,518.29441 L 785.97956,493.00188"
         style="font-size:407.94406128px;font-style:normal;font-weight:normal;fill:#000000;fill-opacity:1;stroke:#eeeeee;stroke-width:8;stroke-linecap:butt;stroke-linejoin:miter;stroke-miterlimit:4;stroke-opacity:1;font-family:cmr10" />
    </g>
  </g>
</svg>
